<svg width="50" height="50" viewBox="0 0 50 50" fill="none" xmlns="http://www.w3.org/2000/svg">
  <path
     fill-rule="evenodd"
     clip-rule="evenodd"
     d="m 6.725,14.468 c 3.28,0 4.558,-1.991 4.558,-5.398 0,-3.408 -1.495,-5.783 -4.461,-5.783 H 3.497 V 14.468 Z M 0,0.312 h 7.256 c 4.606,0 7.572,3.695 7.572,8.758 0,2.783 -0.94,5.23 -2.749,6.742 -1.278,1.056 -2.942,1.656 -5.113,1.656 H 0 Z m 24.817,11.013 c 0,-2.4 -1.134,-4.031 -3.135,-4.031 -2.026,0 -3.135,1.631 -3.135,4.03 0,2.4 1.109,4.008 3.135,4.008 2.001,0 3.135,-1.608 3.135,-4.007 z m -9.598,0 c 0,-3.671 2.629,-6.502 6.463,-6.502 3.835,0 6.463,2.831 6.463,6.502 0,3.671 -2.628,6.503 -6.463,6.503 -3.834,0 -6.463,-2.832 -6.463,-6.503 z m 13.468,0 c 0,-3.671 2.412,-6.502 6.174,-6.502 3.208,0 5.185,1.847 5.62,4.51 h -3.208 c -0.217,-1.08 -1.062,-1.895 -2.267,-1.895 -1.978,0 -2.99,1.512 -2.99,3.887 0,2.328 0.94,3.887 2.942,3.887 1.326,0 2.267,-0.696 2.483,-2.087 h 3.16 c -0.217,2.615 -2.267,4.703 -5.571,4.703 -3.907,0 -6.343,-2.832 -6.343,-6.503 z m 20.454,6.143 v -1.44 h -0.072 c -0.845,1.128 -1.81,1.776 -3.546,1.776 -2.749,0 -4.292,-1.752 -4.292,-4.44 V 5.16 h 3.255 v 7.654 c 0,1.44 0.652,2.231 2.05,2.231 1.544,0 2.484,-1.151 2.484,-2.783 V 5.159 h 3.28 v 12.309 z m 19.136,0 h 3.28 V 5.158 h -3.28 z m 0,-14.03 h 3.28 V 0.387 h -3.28 v 3.05 z m 13.301,7.335 c 0,-1.8 -0.965,-3.335 -2.943,-3.335 -1.664,0 -2.773,1.296 -2.773,3.36 0,2.087 1.11,3.31 2.797,3.31 2.074,0 2.918,-1.511 2.918,-3.335 z m -8.658,7.055 h 3.255 c 0.266,0.767 0.965,1.367 2.484,1.367 1.857,0 2.75,-0.887 2.75,-2.567 v -1.344 h -0.073 c -0.723,0.816 -1.664,1.44 -3.231,1.44 -2.75,0 -5.45,-2.16 -5.45,-5.879 0,-3.67 2.218,-6.022 5.353,-6.022 1.544,0 2.677,0.6 3.425,1.631 h 0.048 V 5.16 h 3.16 v 11.373 c 0,1.727 -0.555,2.903 -1.472,3.743 -1.037,0.96 -2.629,1.392 -4.461,1.392 -3.377,0 -5.45,-1.44 -5.788,-3.84 z M 89.252,6.838 h 0.073 c 0.844,-1.32 1.977,-2.015 3.666,-2.015 2.556,0 4.268,1.92 4.268,4.607 v 8.038 h -3.28 V 9.91 c 0,-1.32 -0.772,-2.256 -2.146,-2.256 -1.447,0 -2.508,1.152 -2.508,2.832 v 6.982 h -3.28 V 5.158 h 3.207 z M 60.804,7.126 c -2.556,-0.552 -3.762,-0.96 -3.762,-2.351 0,-1.224 1.23,-2.016 3.111,-2.016 1.717,0 3.028,0.802 3.298,2.4 h 3.364 C 66.472,1.826 63.987,0 60.177,0 c -3.834,0 -6.608,1.751 -6.608,5.135 0,3.575 2.822,4.39 5.909,5.087 2.629,0.6 4.269,0.935 4.269,2.615 0,1.584 -1.568,2.207 -3.353,2.207 -2.46,0 -3.641,-0.816 -3.882,-2.879 h -3.425 c 0.12,3.623 2.773,5.687 7.452,5.687 3.883,0 6.705,-1.944 6.705,-5.423 0,-3.695 -2.894,-4.535 -6.44,-5.303 z M 98.696,5.04 c -0.607,0 -1.1,0.491 -1.1,1.095 0,0.603 0.493,1.094 1.1,1.094 0.606,0 1.1,-0.49 1.1,-1.094 0,-0.604 -0.494,-1.095 -1.1,-1.095 z m 0,2.392 c -0.72,0 -1.305,-0.582 -1.305,-1.298 0,-0.715 0.585,-1.298 1.304,-1.298 0.72,0 1.305,0.583 1.305,1.298 0,0.716 -0.585,1.298 -1.305,1.298 z"
     fill="#191823"
     id="path182" />
  <path
     fill-rule="evenodd"
     clip-rule="evenodd"
     d="m 98.494,5.681 v 0.416 h 0.087 c 0.085,0 0.117,-0.002 0.164,-0.004 C 98.8,6.091 98.979,6.082 98.979,5.888 A 0.19,0.19 0 0 0 98.874,5.71 C 98.821,5.683 98.756,5.681 98.609,5.681 Z M 98.246,5.467 h 0.425 c 0.178,0.002 0.297,0.002 0.414,0.096 A 0.403,0.403 0 0 1 99.233,5.89 0.364,0.364 0 0 1 98.97,6.254 l 0.296,0.54 H 98.981 L 98.717,6.301 h -0.223 v 0.493 h -0.248 z"
     fill="#191823"
     id="path184" />
</svg>
