<?xml version="1.0" encoding="UTF-8" standalone="no"?>
<!-- Created with Inkscape (http://www.inkscape.org/) -->

<svg
   width="210mm"
   height="297mm"
   viewBox="0 0 210 297"
   version="1.1"
   id="svg570"
   xmlns="http://www.w3.org/2000/svg"
   xmlns:svg="http://www.w3.org/2000/svg">
  <defs
     id="defs567">
    <clipPath
       clipPathUnits="userSpaceOnUse"
       id="clipPath1232">
      <path
         id="path1234"
         style="font-variation-settings:normal;opacity:1;vector-effect:none;fill:#f4ede0;fill-opacity:1;stroke-width:0.264583;stroke-linecap:butt;stroke-linejoin:miter;stroke-miterlimit:4;stroke-dasharray:none;stroke-dashoffset:0;stroke-opacity:1;-inkscape-stroke:none;stop-color:#000000;stop-opacity:1"
         d="m 110.56583,128.8144 -82.134002,0.001 v 19.62154 h 82.134002 v -4.12585 c -0.0523,-0.0187 -0.10023,-0.0774 -0.11524,-0.17983 -0.0179,-0.12225 -0.0337,-0.24495 -0.0501,-0.36742 -0.0169,0.004 -0.0324,0.006 -0.047,0.005 -0.008,0.0848 -0.0232,0.13822 -0.0977,0.16433 -0.0473,0.0734 -0.13223,0.0799 -0.18861,0.0196 -10e-4,-2e-5 -0.002,1e-5 -0.004,0 -0.065,0.0489 -0.12982,0.0389 -0.19535,-0.002 -0.003,0.0296 -0.0113,0.0574 -0.0289,0.0811 -0.26824,0.36121 -0.33504,0.0777 -0.39171,-0.12402 -0.0266,-0.11371 -0.0538,-0.22739 -0.0806,-0.34107 -0.007,-0.005 -0.0141,-0.009 -0.0212,-0.0134 -0.011,0.015 -0.024,0.0277 -0.0403,0.0362 0.0236,0.0637 0.0452,0.12835 0.0388,0.13539 -0.17692,0.19211 -0.24348,0.12382 -0.31161,0.0207 h -5.3e-4 c -0.0146,-0.008 -0.0292,-0.0169 -0.0439,-0.0243 -0.005,0.01 -0.0106,0.0195 -0.0155,0.0294 -0.0144,0.029 -0.0272,0.0587 -0.0403,0.0884 -0.004,0.0133 -0.008,0.0257 -0.0129,0.0357 -0.003,0.0167 -0.003,0.0376 -0.0155,0.0341 -0.003,-9e-4 -0.005,-0.002 -0.008,-0.003 -0.0135,0.009 -0.0314,0.0119 -0.0574,0.005 -0.003,0.0125 -0.008,0.0216 -0.0186,0.0202 -0.0956,-0.0131 -0.20049,-0.0372 -0.26975,-0.10438 -0.0386,-0.0375 -0.005,-0.10738 -0.005,-0.16123 -4e-5,-0.0582 0.001,-0.1166 0.003,-0.17467 -0.0139,-0.007 -0.0277,-0.0135 -0.0419,-0.0191 -0.003,-0.0206 -0.007,-0.041 -0.0108,-0.0615 -0.0962,0.14373 -0.2143,0.27638 -0.33487,0.26769 -0.18898,-0.0136 -0.11765,-0.31217 -0.0692,-0.48059 -0.0218,-0.0348 -0.0422,-0.0823 -0.06,-0.13126 -0.0605,0.003 -0.12476,-0.0232 -0.1788,-0.0506 -0.029,-0.0147 -0.0303,-0.0576 -0.0393,-0.0889 -10e-4,-0.005 -0.002,-0.009 -0.004,-0.014 -0.0417,0.074 -0.10533,0.0749 -0.27027,-0.0388 -0.0318,-0.0219 0.016,-0.22755 0.0212,-0.25786 0.0115,-0.0569 0.0243,-0.11332 0.0383,-0.1695 -0.0174,-0.0262 -0.0342,-0.0528 -0.0507,-0.0791 -0.004,0.004 -0.008,0.007 -0.0124,0.0109 -0.0651,-0.0149 -0.13541,-0.0156 -0.19534,-0.045 -0.0244,-0.012 -0.0293,-0.046 -0.0403,-0.0708 -0.0534,-0.1202 -0.0687,-0.25507 -0.10749,-0.37982 -0.0218,-0.14578 -0.0541,-0.16413 0.185,-0.24701 0.0256,-0.009 0.0686,0.0398 0.108,0.0956 0.006,-0.014 0.0133,-0.0278 0.0207,-0.0419 -0.014,-0.0907 -0.0155,-0.20268 -0.0191,-0.28887 -0.004,-0.18989 -0.008,-0.38159 0.0103,-0.57103 0.006,-0.0628 0.0267,-0.25034 0.0904,-0.29145 0.0375,-0.0242 0.0837,-0.0234 0.13023,-0.0227 -2.6e-4,-0.004 -7.9e-4,-0.007 -0.001,-0.0109 -0.0226,-0.14343 -0.0439,-0.2871 -0.063,-0.43098 0.003,-0.003 0.005,-0.006 0.008,-0.009 -0.005,-0.0144 -0.01,-0.0265 -0.002,-0.0207 0.004,0.003 0.008,0.006 0.0119,0.009 0.0554,-0.0623 0.0989,-0.14459 0.17673,-0.1695 0.0416,-0.0133 0.0624,0.0625 0.0842,0.10025 0.0125,0.0217 0.0115,0.0486 0.0155,0.0734 0.0217,0.13317 0.0327,0.26814 0.0444,0.40256 0.0133,0.0841 0.026,0.16818 0.0398,0.25218 0.0104,-0.0105 0.0204,-0.0206 0.03,-0.0294 0.0226,-0.11989 0.0435,-0.24056 0.0703,-0.35864 0.0471,-0.26138 0.0654,-0.34302 0.0987,-0.601 0.0102,-0.0792 0.0162,-0.15883 0.0248,-0.23822 0.0113,-0.1055 0.006,-0.30926 0.14882,-0.35605 0.0607,-0.0198 0.11295,0.0593 0.1695,0.0889 0.0384,0.11521 0.0508,0.22827 0.0687,0.3483 0.008,0.052 0.0157,0.10386 0.0253,0.15554 0.006,0.0345 0.0188,0.0683 0.0243,0.10284 0.0867,-0.0699 0.17182,-0.11889 0.30179,-0.0718 0.0382,0.0138 0.0637,0.0504 0.0956,0.0754 0.0101,0.0153 0.0209,0.0304 0.0315,0.0455 0.0772,-0.008 0.12393,0.0668 0.18293,0.14366 0.0299,0.0358 0.0608,0.0707 0.092,0.10542 0.0326,-0.18681 0.0777,-0.43834 0.10025,-0.51934 0.0112,-0.0404 0.0355,-0.0757 0.0532,-0.11369 0.0736,0.0497 0.17411,0.0764 0.23978,0.13281 0.003,-10e-4 0.006,-0.002 0.008,-0.004 -0.002,0.002 -0.003,0.004 -0.005,0.006 0.019,0.0169 0.0349,0.0363 0.046,0.06 0.06,0.1277 0.004,0.28216 0.002,0.42323 -0.001,0.0729 -0.004,0.14577 -0.006,0.21859 0.006,5.8e-4 0.0122,5.6e-4 0.0181,0.002 0.004,-0.0434 0.008,-0.0868 0.0124,-0.13023 0.0268,-0.15824 -0.006,-0.708 0.35657,-0.49609 0.0235,0.0137 0.0507,0.112 0.0718,0.20671 0.0619,-0.21327 0.11336,-0.43002 0.17621,-0.64234 0.0297,-0.11349 0.0592,-0.22706 0.0889,-0.34055 0.002,-0.009 0.004,-0.0186 0.007,-0.0279 z m -2.25361,10.49703 c 0.002,0.0718 0.0147,0.10789 0.0326,0.12299 -0.007,-0.0424 -0.0166,-0.084 -0.0326,-0.12299 z m 2.25361,0.66404 c -0.0374,0.12955 -0.0782,0.25784 -0.12712,0.38344 -0.0138,0.0353 -0.0291,0.0742 -0.0465,0.11369 0.0253,0.15461 0.0471,0.30949 0.0496,0.4656 0.0763,0.0475 0.10179,0.21399 0.12402,0.33745 z m -1.72392,0.008 c -7.9e-4,2.4e-4 -0.002,7.7e-4 -0.002,0.002 0.005,0.0132 0.0245,0.0169 0.0305,0.0295 0.0148,0.0312 -0.11143,0.12419 -0.12558,0.12609 -0.0675,0.009 -0.13572,-0.0102 -0.2036,-0.0155 -0.03,-0.0362 -0.0539,-0.074 -0.0734,-0.11265 -0.0188,0.12016 -0.0393,0.24027 -0.061,0.3607 -0.0294,0.13031 -0.051,0.26318 -0.0765,0.39533 0.002,0.01 0.004,0.0191 0.006,0.0289 0.0144,-0.0918 0.0438,-0.28132 0.0615,-0.34933 0.008,-0.0296 0.003,-0.0821 0.0331,-0.0858 0.33134,-0.0399 0.27477,0.032 0.3111,0.25941 0.005,0.0496 0.0104,0.0992 0.0155,0.14883 0.0128,-0.0157 0.0286,-0.0282 0.0486,-0.0377 0.0105,-0.2056 0.0242,-0.4108 0.0455,-0.61547 0.0237,-0.004 0.048,-0.0133 0.0724,-0.0227 -0.0175,-0.0369 -0.0382,-0.073 -0.0646,-0.10852 -0.005,-1.8e-4 -0.0138,-0.004 -0.0176,-0.003 z m 0.49092,0.48059 c 0.001,0.004 0.002,0.008 0.003,0.0119 2.6e-4,-0.002 5.3e-4,-0.004 0.001,-0.007 -0.001,-9.5e-4 -0.003,-0.003 -0.004,-0.005 z m -1.7172,0.2558 c -0.002,-1.2e-4 -7.9e-4,0.006 0.003,0.0186 -0.13074,0.14843 -0.0495,0.10933 0.0398,0.0646 -0.0171,-0.0386 -0.038,-0.0828 -0.0424,-0.0832 z m 0.42736,0.031 c -0.001,-0.002 5.3e-4,0.006 0.004,0.0165 1.8e-4,-8.7e-4 2.6e-4,-0.002 5.3e-4,-0.003 -0.002,-0.008 -0.004,-0.013 -0.004,-0.0139 z m 2.40657,0.25166 c -9e-5,0.003 9e-5,0.006 0,0.009 0.003,-7.9e-4 10e-5,-0.0128 0,-0.009 z m -2.69027,0.80254 c -0.005,0.007 -0.009,0.0137 -0.0134,0.0207 0.006,-0.002 0.0114,-0.005 0.0155,-0.008 -7.9e-4,-0.004 -0.001,-0.008 -0.002,-0.0124 z m -0.0419,0.0806 c -0.0192,0.0501 -0.0302,0.1038 -0.0398,0.15813 0.0107,0.0175 0.0194,0.0313 0.0274,0.0444 0.0101,-0.0288 0.0203,-0.0572 0.031,-0.0858 0.005,-0.0119 0.009,-0.0238 0.0139,-0.0357 0.003,-0.0102 0.006,-0.0203 0.009,-0.0305 -0.0121,-0.0134 -0.0282,-0.0324 -0.0413,-0.0506 z m -0.14831,0.88057 c -0.003,0.005 -0.005,0.0117 -0.007,0.0186 0.002,-0.006 0.004,-0.0125 0.007,-0.0186 z m 0.72088,0.43667 c -0.007,0.004 -0.0134,0.007 -0.0202,0.0103 7.9e-4,0.004 0.002,0.009 0.003,0.0129 0.006,-0.008 0.012,-0.0155 0.0176,-0.0232 z m 1.63763,0.0889 c 2.1e-4,3.2e-4 2.5e-4,7.4e-4 5.3e-4,0.001 5.3e-4,-2.4e-4 10e-4,-2.4e-4 0.002,-5e-4 -8e-4,-3e-5 -0.002,-3.7e-4 -0.003,-5.3e-4 z m -0.31368,0.10335 c 1.7e-4,6.9e-4 2.6e-4,0.001 5.3e-4,0.002 l 5.3e-4,5.3e-4 c 3e-5,-6.6e-4 -2e-5,-0.001 0,-0.002 -2.6e-4,-1.9e-4 -7.9e-4,-3.2e-4 -0.001,-5.3e-4 z m 0.27492,0.14883 c -0.001,0.0204 -0.003,0.0412 -0.004,0.062 0.001,7.7e-4 0.002,0.001 0.003,0.002 7.9e-4,0.002 0.002,0.004 0.003,0.006 -1.6e-4,-0.0129 -2.6e-4,-0.0259 -5.3e-4,-0.0388 -2.7e-4,-0.0103 -5.3e-4,-0.0207 -10e-4,-0.031 z m -1.31516,0.23823 c -0.0143,7.9e-4 -0.016,0.006 0.002,0.0207 0.002,-0.007 0.003,-0.014 0.005,-0.0207 -0.002,-4e-5 -0.005,-1e-4 -0.007,0 z m 1.187,0.20722 c 0.002,0.007 0.005,0.0141 0.007,0.0212 0.002,0.006 0.0116,-0.0166 0.005,-0.0186 -0.004,-9.5e-4 -0.008,-0.002 -0.0119,-0.003 z" />
    </clipPath>
  </defs>
  <g
     id="g314">
    <g
       id="layer1"
       transform="translate(-28.431828,-128.81543)">
      <path
         style="display:inline;fill:#49733b;stroke:none;stroke-width:0.0846667"
         d="m 105.42839,128.81543 v 14.81667 h 1.35467 v -11.26067 -2.54 l -0.13572,-0.92898 -1.21895,-0.087 m -65.531999,10.75267 c 1.52536,-0.72636 0.90602,-2.08509 1.0304,-3.38667 0.15536,-1.62655 0.86986,-3.24055 2.18693,-4.26044 1.01042,-0.78241 2.12302,-1.12985 3.38337,-1.16247 1.04733,-0.0271 2.06417,0.18422 2.96663,0.73365 0.85251,0.51902 1.58242,1.26606 2.05046,2.14926 1.38464,2.61265 0.87198,5.89356 -1.37312,7.85834 -2.45737,2.15045 -6.69612,1.35974 -8.29733,-1.42367 -1.7493,0.81584 -0.58844,1.93624 0.50799,2.70577 1.56998,1.10177 3.63458,1.45424 5.50334,1.16561 1.71314,-0.26458 3.35153,-1.14715 4.43069,-2.51672 0.89484,-1.13572 1.35772,-2.47176 1.51003,-3.89466 0.12971,-1.21152 0.0179,-2.50697 -0.46143,-3.64067 -0.49674,-1.17489 -1.16248,-2.19306 -2.17729,-2.99136 -2.87096,-2.25842 -7.51849,-1.94996 -9.97594,0.79009 -1.27093,1.41705 -1.79273,3.21215 -1.79273,5.07994 0,0.93218 0.0832,1.94868 0.508,2.794 m 23.53767,-9.52089 c -1.24257,0.26833 -0.7305,2.12078 0.50732,1.77951 1.06833,-0.29454 0.56702,-2.01152 -0.50732,-1.77951 m 16.67908,0.002 c -1.24604,0.29536 -0.72322,2.11681 0.50758,1.77748 1.0883,-0.30006 0.57446,-2.03397 -0.50758,-1.77748 m -48.42941,10.53486 c 1.85051,-0.50614 3.97442,-1.96139 4.92116,-3.64067 0.42824,-0.75962 0.76336,-1.84539 0.18855,-2.62101 -0.70408,-0.95009 -2.12138,-0.6253 -2.99305,-0.1466 -2.20577,1.21139 -3.05859,3.25504 -3.85514,5.47229 -0.16679,0.46431 -2.04522,0.4456 -1.36597,1.15451 0.3864,0.40327 0.98791,0.11117 1.37806,0.4252 0.75772,0.61011 0.99542,1.60985 1.89572,2.18863 2.47572,1.59156 5.61018,0.0434 7.62,-1.60155 1.37329,-1.12404 2.60612,-2.4765 3.61129,-3.94014 0.23283,-0.33909 0.97087,-1.20328 0.61959,-1.64191 -0.22716,-0.28371 -0.61104,0.0292 -0.7758,0.21179 -0.58861,0.65212 -1.06977,1.42411 -1.62535,2.10746 -0.41444,0.50977 -0.85717,0.97493 -1.32173,1.43933 -1.66142,1.66074 -5.81093,4.54558 -7.80717,1.77766 -0.25841,-0.35831 -0.37139,-0.76657 -0.49016,-1.18499 m 25.82333,-4.572 v -1.524 h -1.27 c 0,2.22521 0.0847,4.45744 0.0847,6.68866 0,0.5003 -0.2551,2.00889 0.087,2.38489 0.19448,0.21379 0.90966,0.0704 1.18296,0.0704 0,-2.32376 -0.88807,-6.90313 1.94734,-7.91222 0.53755,-0.19131 1.13233,-0.13112 1.69333,-0.13112 l 0.254,-1.18533 c -1.82169,-0.61668 -2.81347,0.45974 -3.97933,1.60867 m 17.526,6.01133 h 0.0847 c 0,2.04064 0.0765,4.52213 -2.45533,5.05579 -1.06714,0.22487 -2.26229,0.11573 -3.21733,-0.43849 -0.40522,-0.23512 -0.83109,-0.83812 -1.27,-0.94734 -0.33224,-0.0827 -0.89874,0.50004 -0.93803,0.80975 -0.0746,0.58886 1.43223,1.27068 1.86936,1.45771 1.94683,0.8332 4.87375,0.62188 6.33434,-1.02709 1.03928,-1.1734 1.03166,-2.8476 1.03166,-4.31766 v -8.128 h -1.35467 v 1.43933 c -0.78977,-0.89656 -1.67987,-1.47788 -2.87866,-1.6218 -0.94073,-0.11293 -1.8371,-0.0189 -2.70934,0.37826 -3.35644,1.52821 -3.49267,6.67889 -0.254,8.41277 1.65837,0.88782 4.83312,0.90856 5.75734,-1.07323 m 10.32933,-6.18067 c 0,-1.28118 -0.1872,-1.35466 -1.43933,-1.35466 l 0.0847,3.302 v 5.842 h 1.35467 c 0,-2.00584 -0.55702,-4.99788 0.53069,-6.77334 0.82931,-1.35371 3.05562,-2.06374 4.16348,-0.59233 0.57387,0.76217 0.55516,1.80324 0.55516,2.709 v 4.65667 h 1.27 v -4.65667 c 0,-0.95851 0.0997,-1.96029 -0.2286,-2.87867 -1.05096,-2.93979 -4.67986,-1.86487 -6.29073,-0.254 m 10.24467,0.67734 c 1.45465,-0.64737 4.3014,-2.21588 5.076359,0.33866 0.11565,0.38134 0.16476,0.78833 0.17297,1.18534 -1.706629,0 -3.787219,-0.13539 -5.249329,0.91347 -1.69816,1.21809 -1.40471,3.9795 0.59266,4.70001 1.99424,0.71933 3.32469,-0.0866 4.741339,-1.38015 l 0.0847,1.35467 h 1.27 c -0.22386,-1.77123 -0.16933,-3.54991 -0.16933,-5.334 0,-1.27305 -0.007,-2.5198 -1.10397,-3.38301 -1.232069,-0.96931 -3.268129,-0.78841 -4.653359,-0.28347 -0.35747,0.13031 -1.32614,0.50198 -1.33841,0.96479 -0.008,0.31128 0.41275,0.67617 0.57641,0.92369 m -32.59667,-2.032 v 9.144 h 1.27 v -9.144 h -1.27 m 16.67933,0 v 9.144 h 1.27 v -9.144 h -1.27 m -47.83666,4.826 c 0.46536,-1.42774 1.25131,-2.85046 2.374,-3.87017 0.29316,-0.26627 1.11875,-1.02524 1.54217,-0.62794 0.38066,0.35719 -0.16442,1.21114 -0.36576,1.53477 -0.76158,1.22454 -2.18672,2.46406 -3.55041,2.96334 m 39.624,-3.87011 c 4.30123,-0.5382 5.154,6.52525 0.84666,6.98804 -0.61612,0.0662 -1.28287,0.0348 -1.86266,-0.19397 -3.3904,-1.33739 -2.40107,-6.36649 1.016,-6.79407 m 29.379329,3.70077 c 0,0.66481 -0.0202,1.31716 -0.25959,1.94734 -0.58521,1.54135 -2.938609,2.28413 -4.211829,1.07281 -0.93886,-0.89324 -0.3037,-2.22623 0.74609,-2.64211 0.46245,-0.18322 0.95021,-0.25366 1.43933,-0.31725 0.75607,-0.0982 1.524249,-0.0608 2.285999,-0.0608 m 8.04333,1.73846 c -1.64041,0.39828 -1.00169,3.016 0.67734,2.63085 1.70366,-0.39082 1.02692,-3.04461 -0.67734,-2.63085 m 0.254,0.24469 c 1.36542,-0.13403 1.57049,2.03954 0.16934,2.14647 -1.39048,0.10609 -1.52189,-2.0138 -0.16934,-2.14647 m -0.16933,1.91152 c 0.0347,-1.06494 0.45144,-0.13098 0.84667,0 -0.002,-0.27102 -0.0644,-0.54237 -0.059,-0.81077 0.003,-0.15164 0.056,-0.29972 0.018,-0.45161 -0.0897,-0.35882 -0.70824,-0.58098 -1.00864,-0.34392 -0.35847,0.28296 -0.2087,1.46965 0.20295,1.6063 m 0.59267,-1.18533 v 0.0847 l -0.59267,0.16934 v -0.42334 z"
         id="path550"
         clip-path="url(#clipPath1232)" />
    </g>
    <path
       style="font-variation-settings:'opsz' 144, 'wght' 700;fill:#000000;fill-opacity:0.254083;stroke-width:0.372322"
       d="M 17.126815,56.815546 C 13.556627,55.683482 11.297541,53.897301 8.8400401,50.263478 6.9502435,47.469102 5.6562836,46.469772 3.4830036,46.126223 1.132205,45.754612 -0.29576664,44.610825 0.57030283,43.793187 0.87096768,43.509336 1.9768724,42.999116 3.0278688,42.659365 5.380091,41.898973 5.7372946,41.48378 7.0563758,37.97685 9.7999925,30.682629 13.123081,25.739845 17.510157,22.427825 c 3.275451,-2.472799 5.986551,-3.557149 8.990488,-3.595897 3.798417,-0.049 5.900363,2.047668 5.877755,5.862984 -0.02513,4.240665 -2.934185,8.915793 -8.174141,13.136612 -2.910291,2.344259 -7.924114,5.193724 -10.707442,6.085272 -1.259291,0.403373 -1.372665,0.544673 -1.157215,1.442242 1.360266,5.666877 6.408119,8.841063 12.545457,7.888823 8.367148,-1.298208 18.044732,-8.469819 26.385011,-19.552714 3.500661,-4.651819 4.680095,-5.836457 5.66991,-5.694925 2.863145,0.4094 -2.870908,9.050777 -11.574413,17.442958 -6.054486,5.837914 -12.462506,9.808833 -18.239799,11.302828 -2.707105,0.700054 -7.896686,0.736144 -9.998953,0.06954 z M 15.413516,38.740601 c 4.626994,-2.335699 9.819263,-7.417436 11.968421,-11.713639 1.256882,-2.512529 1.356762,-3.415255 0.484512,-4.37908 -0.791612,-0.874721 -1.301928,-0.857132 -3.19812,0.110233 -3.482844,1.776815 -8.348076,7.93627 -10.665243,13.502355 -1.129374,2.712879 -1.361779,3.577991 -0.961196,3.577991 0.108228,0 1.17546,-0.494037 2.371626,-1.09786 z"
       id="path1112"
       transform="scale(0.26458333)" />
    <path
       style="font-variation-settings:'opsz' 144, 'wght' 700;fill:#000000;fill-opacity:0.254083;stroke-width:0.372322"
       d="M 15.956439,56.190008 C 13.573072,55.27343 11.23295,53.239668 8.813791,49.982452 6.8351119,47.318308 5.646015,46.418218 3.5370596,45.988217 2.0372735,45.682421 0.55848309,44.835411 0.55848309,44.28217 c 0,-0.208621 1.04715581,-0.849154 2.32701291,-1.423407 1.2798571,-0.574253 2.5209789,-1.279311 2.7580483,-1.566796 0.2370693,-0.287486 1.0447386,-2.058119 1.7948205,-3.93474 3.6489642,-9.129301 9.1608622,-15.507265 15.2515472,-17.647968 9.4473,-3.320458 12.819787,5.251405 5.516745,14.02193 -2.900639,3.483497 -8.879805,7.67794 -13.77455,9.662981 -1.180013,0.478549 -2.197292,1.118624 -2.260618,1.422388 -0.224181,1.075349 1.524476,4.333017 3.110758,5.795201 2.385356,2.198744 3.916476,2.753246 7.61556,2.758006 2.649493,0.0034 3.672725,-0.187154 6.284898,-1.170478 7.441906,-2.801426 14.232713,-8.399001 21.921045,-18.069235 4.276852,-5.37934 4.722391,-5.833575 5.721905,-5.833575 0.690545,0 0.761052,0.150667 0.554283,1.1845 -0.525499,2.627502 -4.032721,7.426425 -9.713931,13.291545 -6.764582,6.983563 -12.753813,11.182742 -18.876694,13.234858 -3.745743,1.255407 -9.818619,1.34183 -12.832874,0.182628 z M 15.793583,38.669054 c 4.844374,-2.726362 9.690016,-7.551764 11.694692,-11.645846 1.132761,-2.3134 1.253041,-3.627373 0.409285,-4.471129 -1.206141,-1.206141 -3.239561,-0.447877 -6.183493,2.305827 -3.482359,3.257339 -8.0696,10.518373 -8.729454,13.817644 -0.299499,1.497496 0.138381,1.496483 2.80897,-0.0065 z"
       id="path1114"
       transform="scale(0.26458333)" />
    <path
       style="font-variation-settings:'opsz' 144, 'wght' 700;fill:#000000;fill-opacity:1;stroke-width:0.372322"
       d="M 18.133287,56.549984 C 14.702479,55.978957 12.646745,54.474345 8.7027303,49.647675 6.8266598,47.351747 6.2007272,46.852288 4.3718209,46.191856 0.247841,44.702653 0.11870939,44.305949 3.2682278,42.80151 5.366117,41.799405 5.7608216,41.440138 6.4448201,39.910117 6.8743956,38.949209 7.8194473,36.842176 8.5449343,35.227822 13.72281,23.70601 23.37067,16.743303 29.686382,19.970374 c 2.496424,1.275571 2.871924,5.832345 0.824093,10.000543 -2.145898,4.367807 -8.577567,9.786568 -15.304998,12.89465 -3.489111,1.611974 -3.635925,1.898357 -2.32089,4.527248 3.326466,6.649952 10.199717,7.961868 19.13511,3.652371 6.235743,-3.007469 11.298285,-7.374051 18.131623,-15.639026 6.101309,-7.379578 7.000117,-8.16519 7.000117,-6.118509 0,2.133122 -3.516158,6.968983 -9.665928,13.29379 C 36.473503,53.906877 27.606358,58.126697 18.133287,56.549984 Z m -0.961162,-18.61636 c 7.136768,-4.634552 13.153522,-13.23004 10.863726,-15.519836 -2.430609,-2.430609 -9.802421,4.48468 -13.90375,13.042719 -2.344104,4.891324 -1.605013,5.493561 3.040024,2.477117 z"
       id="path1116"
       transform="scale(0.26458333)" />
  </g>
</svg>
